<svg xmlns="http://www.w3.org/2000/svg" viewBox="0 0 192 192" width="192" height="192">
  <!-- Background -->
  <rect width="192" height="192" rx="30" fill="#4f46e5"/>
  <!-- Calendar card -->
  <rect x="27" y="42" width="138" height="118" rx="8" fill="white" opacity="0.97"/>
  <!-- Header bar -->
  <rect x="27" y="42" width="138" height="30" rx="8" fill="#3730a3"/>
  <rect x="27" y="62" width="138" height="10" fill="#3730a3"/>
  <!-- Binding rings -->
  <rect x="57" y="30" width="10" height="24" rx="5" fill="#1e1b4b"/>
  <rect x="125" y="30" width="10" height="24" rx="5" fill="#1e1b4b"/>
  <!-- Day grid row 1 -->
  <rect x="39" y="88" width="16" height="14" rx="3" fill="#ede9fe"/>
  <rect x="61" y="88" width="16" height="14" rx="3" fill="#ede9fe"/>
  <rect x="83" y="88" width="16" height="14" rx="3" fill="#ede9fe"/>
  <rect x="105" y="88" width="16" height="14" rx="3" fill="#ede9fe"/>
  <rect x="127" y="88" width="16" height="14" rx="3" fill="#4f46e5"/>
  <!-- Day grid row 2 -->
  <rect x="39" y="108" width="16" height="14" rx="3" fill="#ede9fe"/>
  <rect x="61" y="108" width="16" height="14" rx="3" fill="#ede9fe"/>
  <rect x="83" y="108" width="16" height="14" rx="3" fill="#4f46e5"/>
  <rect x="105" y="108" width="16" height="14" rx="3" fill="#ede9fe"/>
  <rect x="127" y="108" width="16" height="14" rx="3" fill="#ede9fe"/>
  <!-- Day grid row 3 -->
  <rect x="39" y="128" width="16" height="14" rx="3" fill="#ede9fe"/>
  <rect x="61" y="128" width="16" height="14" rx="3" fill="#ede9fe"/>
  <rect x="83" y="128" width="16" height="14" rx="3" fill="#ede9fe"/>
  <rect x="105" y="128" width="16" height="14" rx="3" fill="#ede9fe"/>
  <rect x="127" y="128" width="16" height="14" rx="3" fill="#ede9fe"/>
  <!-- Day grid row 4 -->
  <rect x="39" y="148" width="16" height="8" rx="3" fill="#ede9fe"/>
  <rect x="61" y="148" width="16" height="8" rx="3" fill="#ede9fe"/>
</svg>
