<svg xmlns="http://www.w3.org/2000/svg" viewBox="0 0 512 512" width="512" height="512">
  <!-- Background -->
  <rect width="512" height="512" rx="80" fill="#4f46e5"/>
  <!-- Calendar card -->
  <rect x="72" y="112" width="368" height="316" rx="20" fill="white" opacity="0.97"/>
  <!-- Header bar -->
  <rect x="72" y="112" width="368" height="80" rx="20" fill="#3730a3"/>
  <rect x="72" y="164" width="368" height="28" fill="#3730a3"/>
  <!-- Binding rings -->
  <rect x="152" y="80" width="26" height="64" rx="13" fill="#1e1b4b"/>
  <rect x="334" y="80" width="26" height="64" rx="13" fill="#1e1b4b"/>
  <!-- Header text line (decorative) -->
  <rect x="108" y="132" width="120" height="10" rx="5" fill="white" opacity="0.7"/>
  <!-- Day-of-week labels row -->
  <rect x="104" y="212" width="44" height="10" rx="5" fill="#c7d2fe" opacity="0.8"/>
  <rect x="162" y="212" width="44" height="10" rx="5" fill="#c7d2fe" opacity="0.8"/>
  <rect x="220" y="212" width="44" height="10" rx="5" fill="#c7d2fe" opacity="0.8"/>
  <rect x="278" y="212" width="44" height="10" rx="5" fill="#c7d2fe" opacity="0.8"/>
  <rect x="336" y="212" width="44" height="10" rx="5" fill="#c7d2fe" opacity="0.8"/>
  <!-- Day grid row 1 -->
  <rect x="104" y="236" width="44" height="38" rx="8" fill="#ede9fe"/>
  <rect x="162" y="236" width="44" height="38" rx="8" fill="#ede9fe"/>
  <rect x="220" y="236" width="44" height="38" rx="8" fill="#ede9fe"/>
  <rect x="278" y="236" width="44" height="38" rx="8" fill="#ede9fe"/>
  <rect x="336" y="236" width="44" height="38" rx="8" fill="#4f46e5"/>
  <!-- Day grid row 2 -->
  <rect x="104" y="288" width="44" height="38" rx="8" fill="#ede9fe"/>
  <rect x="162" y="288" width="44" height="38" rx="8" fill="#ede9fe"/>
  <rect x="220" y="288" width="44" height="38" rx="8" fill="#4f46e5"/>
  <rect x="278" y="288" width="44" height="38" rx="8" fill="#ede9fe"/>
  <rect x="336" y="288" width="44" height="38" rx="8" fill="#ede9fe"/>
  <!-- Day grid row 3 -->
  <rect x="104" y="340" width="44" height="38" rx="8" fill="#ede9fe"/>
  <rect x="162" y="340" width="44" height="38" rx="8" fill="#ede9fe"/>
  <rect x="220" y="340" width="44" height="38" rx="8" fill="#ede9fe"/>
  <rect x="278" y="340" width="44" height="38" rx="8" fill="#ede9fe"/>
  <rect x="336" y="340" width="44" height="38" rx="8" fill="#ede9fe"/>
  <!-- Day grid row 4 (partial) -->
  <rect x="104" y="392" width="44" height="20" rx="6" fill="#ede9fe"/>
  <rect x="162" y="392" width="44" height="20" rx="6" fill="#ede9fe"/>
  <rect x="220" y="392" width="44" height="20" rx="6" fill="#ede9fe"/>
</svg>
